<svg width="387" height="388" viewBox="0 0 387 388" fill="none" xmlns="http://www.w3.org/2000/svg">
<path d="M256.463 336.853C256.942 363.974 229.343 386.426 194.815 386.996C160.292 387.566 131.916 366.042 131.437 338.916C130.962 311.794 255.983 309.726 256.463 336.853Z" fill="#F2EAD1"/>
<path d="M215.666 318.352C218.232 332.248 215.784 347.312 210.564 360.042C206.399 370.192 200.388 379.533 192.643 386.938C193.369 386.947 194.086 387 194.817 386.987C229.34 386.417 256.939 363.966 256.464 336.844C256.277 326.539 238.099 320.455 215.666 318.352Z" fill="#EDDEB0"/>
<path d="M346.241 263.425L341.679 263.5L328.781 175.192C320.131 120.533 288.723 81.1226 241.631 65.5114C242.48 61.6892 242.946 57.7345 242.873 53.656C242.366 24.9169 217.873 2.01921 188.168 2.50969C158.463 3.00016 134.792 26.6932 135.299 55.4323C135.381 59.9659 136.116 64.3316 137.317 68.5072C90.6867 87.0525 59.6347 128.738 56.4742 179.686L46.1661 268.378L39.3885 268.488C17.2607 268.855 -0.373074 286.508 0.00599893 307.916C0.385072 329.325 18.6308 346.385 40.7586 346.019L347.611 340.95C369.739 340.584 387.373 322.931 386.994 301.522C386.615 280.118 368.369 263.058 346.241 263.425ZM201.207 43.3207C201.175 43.5814 201.129 44.3856 201.011 44.8761C200.997 44.9335 200.979 44.991 200.956 45.0484C200.613 45.9543 200.266 46.8645 199.837 47.7394C199.787 47.841 199.727 47.9338 199.659 48.0266C199.554 48.168 198.503 49.6439 197.868 50.3376C197.832 50.3774 197.791 50.4171 197.75 50.4569C196.992 51.1639 196.147 51.7913 195.283 52.3702C195.183 52.4409 195.073 52.4983 194.959 52.5514C194.936 52.5602 194.914 52.5734 194.891 52.5823C194.256 52.8607 192.913 53.4439 192.274 53.7002C192.246 53.7135 192.214 53.7223 192.187 53.7356C192.128 53.7577 192.068 53.7753 192.009 53.793C191.949 53.8107 191.886 53.8239 191.822 53.8372C190.803 54.0316 189.775 54.1774 188.743 54.2923C188.611 54.3056 188.478 54.31 188.346 54.3012C188.323 54.3012 188.3 54.2967 188.277 54.2967C187.638 54.2349 185.976 54.0493 185.336 53.9653C185.304 53.9609 185.272 53.9565 185.24 53.9521C185.176 53.9432 185.108 53.9256 185.044 53.9079C184.971 53.8902 184.902 53.8637 184.829 53.8372C184.204 53.603 182.783 53.0551 182.171 52.8032C182.153 52.7944 182.139 52.79 182.121 52.7811C182.089 52.7679 182.057 52.7502 182.025 52.7369C181.957 52.7016 181.893 52.6662 181.829 52.6265C181.797 52.6088 181.765 52.5867 181.737 52.5646C181.162 52.1669 180.034 51.3495 179.472 50.9297C179.454 50.9164 179.435 50.9032 179.417 50.8899C179.289 50.7927 179.175 50.6823 179.066 50.5629C178.399 49.8118 177.746 49.0473 177.147 48.2431C177.093 48.168 177.042 48.0929 176.992 48.0134C175.969 46.374 175.439 44.5977 175.398 42.6844C175.512 41.7432 175.626 40.7976 175.741 39.8565C176.229 38.0492 177.143 36.4717 178.481 35.1285C178.595 35.0401 178.709 34.9517 178.819 34.8633C179.052 34.5098 179.262 34.1387 179.554 33.8161C180.308 32.6496 181.317 31.7217 182.582 31.0323C183.829 30.237 185.181 29.7951 186.638 29.7067C188.09 29.3665 189.547 29.4063 191.013 29.826C191.15 29.8658 191.292 29.9056 191.424 29.9542C191.488 29.9763 191.548 29.9984 191.611 30.0249C192.529 30.374 193.466 30.7186 194.37 31.0986C194.571 31.1826 194.767 31.2798 194.95 31.3991C195.804 31.9514 196.626 32.5479 197.416 33.1798C197.48 33.2328 197.54 33.2859 197.599 33.3433C198.298 34.0459 198.892 34.8501 199.494 35.6234C199.54 35.6808 199.581 35.7427 199.618 35.8045C200.705 37.6957 201.376 39.5692 201.385 41.7653C201.39 42.2514 201.239 43.0688 201.207 43.3207Z" fill="#F4F5E0"/>
<path d="M80.4243 266.149C76.629 163.503 104.685 96.3915 163.601 82.6715C135.262 58.2141 149.735 26.8192 168.136 6.65234C148.534 14.6855 134.919 33.5931 135.303 55.4524C135.385 59.9859 136.121 64.3516 137.322 68.5273C90.6867 87.0681 59.6347 128.754 56.4742 179.702L46.1661 268.393L39.3885 268.504C17.2607 268.871 -0.373074 286.523 0.00599893 307.932C0.385072 329.341 18.6308 346.401 40.7586 346.034L60.6714 345.707C27.3586 339.928 16.5391 290.319 61.0231 279.029C61.2606 278.967 79.0953 266.71 80.4243 266.149Z" fill="#F4F4E6"/>
<path d="M346.243 263.428L341.68 263.504L328.783 175.196C320.132 120.537 288.724 81.1265 241.632 65.5153C242.482 61.6931 242.948 57.7384 242.875 53.6599C242.464 30.4 226.337 10.9754 204.451 4.66992C206.726 11.3201 218.486 18.0718 219.705 35.6361C221.925 67.6539 213.257 77.7374 214.143 81.6877C214.636 83.8794 280.946 93.8126 287.468 198.575C289.058 224.084 290.419 260.004 269.894 277.564C299.402 292.402 305.518 321.229 281.846 342.037L347.608 340.95C369.736 340.583 387.37 322.931 386.991 301.522C386.616 280.122 368.371 263.062 346.243 263.428Z" fill="#F2EAD1"/>
<path d="M346.244 263.425L341.681 263.5L342.028 254.305C336.74 255.745 147.463 274.494 47.8264 256.236L46.1914 268.171C79.6321 282.823 307.811 284.462 346.244 263.425Z" fill="#F2EAD1"/>
<path d="M288.886 122.946C323.977 122.946 352.424 95.4233 352.424 61.4728C352.424 27.5223 323.977 0 288.886 0C253.795 0 225.348 27.5223 225.348 61.4728C225.348 95.4233 253.795 122.946 288.886 122.946Z" fill="#FF0000"/>
<path d="M315.302 84.1844C294.536 97.0914 271.837 102.199 247.298 98.8368C243.845 98.364 240.424 97.7233 237.021 96.9898C250.038 114.749 272.421 125.252 296.34 122.517C331.187 118.535 356.101 87.9713 351.986 54.2567C351.789 52.6306 351.47 51.0487 351.145 49.4668C341.988 63.2619 329.675 75.2499 315.302 84.1844Z" fill="#FF0000"/>
</svg>
