<svg width="386" height="386" viewBox="0 0 386 386" fill="none" xmlns="http://www.w3.org/2000/svg">
<path d="M255.411 336.319C255.58 363.55 227.796 385.786 193.362 385.985C158.928 386.185 130.875 364.273 130.711 337.042C130.543 309.811 255.243 309.088 255.411 336.319Z" fill="#F2EAD1"/>
<path d="M214.933 317.326C217.334 331.303 214.724 346.398 209.367 359.119C205.1 369.264 198.996 378.574 191.189 385.924C191.914 385.942 192.624 386.004 193.358 385.999C227.791 385.8 255.571 363.564 255.407 336.333C255.343 325.98 237.284 319.677 214.933 317.326Z" fill="#EDDEB0"/>
<path d="M345.793 263.605L341.243 263.631L329.392 174.851C321.389 119.893 290.521 79.9941 243.735 63.8171C244.623 59.9891 245.133 56.0236 245.11 51.9295C244.933 23.0798 220.77 -0.172033 191.141 0.000959052C161.512 0.173951 137.641 23.7008 137.814 52.5549C137.841 57.1059 138.529 61.4973 139.677 65.6979C92.9587 83.8132 61.5173 125.318 57.7824 176.426L46.4866 265.339L39.7273 265.379C17.655 265.508 -0.131357 283.037 0.000730962 304.528C0.132819 326.024 18.1332 343.345 40.201 343.216L346.262 341.438C368.335 341.309 386.121 323.779 385.989 302.288C385.861 280.797 367.866 263.476 345.793 263.605ZM203.68 41.1064C203.644 41.3681 203.589 42.1754 203.466 42.6678C203.453 42.7255 203.434 42.7831 203.412 42.8364C203.061 43.7412 202.701 44.6505 202.264 45.5244C202.214 45.6264 202.15 45.7195 202.082 45.8083C201.977 45.9502 200.911 47.4184 200.273 48.1059C200.237 48.1459 200.196 48.1858 200.155 48.2257C199.39 48.9265 198.543 49.5475 197.673 50.1197C197.572 50.1863 197.463 50.2484 197.349 50.2972C197.326 50.306 197.304 50.3194 197.281 50.3282C196.643 50.6032 195.3 51.171 194.657 51.4238C194.63 51.4371 194.598 51.446 194.571 51.4593C194.512 51.4815 194.452 51.4992 194.389 51.517C194.329 51.5347 194.266 51.548 194.202 51.5569C193.182 51.7388 192.157 51.8763 191.127 51.9783C190.995 51.9916 190.863 51.9916 190.731 51.9827C190.708 51.9827 190.686 51.9783 190.663 51.9739C190.025 51.9073 188.372 51.6988 187.734 51.6057C187.702 51.6013 187.67 51.5968 187.638 51.5924C187.575 51.5791 187.506 51.5658 187.443 51.548C187.37 51.5259 187.301 51.5037 187.229 51.4771C186.609 51.2375 185.197 50.6698 184.591 50.4125C184.573 50.4036 184.559 50.3992 184.546 50.3903C184.514 50.377 184.482 50.3593 184.45 50.346C184.382 50.3105 184.318 50.275 184.254 50.2306C184.222 50.2085 184.195 50.1907 184.163 50.1685C183.594 49.7649 182.478 48.931 181.922 48.5007C181.904 48.4874 181.886 48.4741 181.868 48.4608C181.74 48.3632 181.626 48.2479 181.521 48.1281C180.866 47.3652 180.219 46.5934 179.636 45.7772C179.581 45.7018 179.531 45.6264 179.485 45.5466C178.488 43.892 177.978 42.1 177.96 40.1794C178.083 39.2346 178.21 38.2898 178.333 37.345C178.843 35.5352 179.772 33.965 181.116 32.6254C181.23 32.5367 181.344 32.4524 181.458 32.3637C181.695 32.0089 181.904 31.6407 182.2 31.3213C182.965 30.1592 183.981 29.2365 185.252 28.5579C186.504 27.7728 187.857 27.3425 189.31 27.2715C190.763 26.9477 192.216 27.001 193.674 27.4357C193.81 27.4756 193.947 27.5199 194.083 27.5687C194.147 27.5909 194.206 27.6131 194.27 27.6397C195.181 27.999 196.11 28.3583 197.008 28.7486C197.208 28.8373 197.399 28.9349 197.581 29.0547C198.424 29.618 199.239 30.2257 200.023 30.8689C200.087 30.9221 200.146 30.9753 200.205 31.033C200.893 31.7471 201.476 32.5589 202.068 33.344C202.113 33.4017 202.154 33.4638 202.186 33.5259C203.252 35.4332 203.899 37.3272 203.881 39.5273C203.872 40.0374 203.712 40.8536 203.68 41.1064Z" fill="#F4F5E0"/>
<path d="M80.6746 263.452C78.0647 160.375 106.81 93.3167 165.721 80.1782C137.741 55.325 152.53 23.9648 171.114 3.91992C151.474 11.7711 137.682 30.605 137.814 52.5483C137.841 57.0993 138.529 61.4906 139.677 65.6912C92.9588 83.8066 61.5173 125.311 57.7824 176.419L46.4866 265.332L39.7273 265.372C17.655 265.501 -0.131357 283.031 0.000730962 304.522C0.132819 326.017 18.1332 343.338 40.201 343.21L60.0643 343.094C26.9102 336.933 16.6894 287.023 61.1802 276.169C61.4171 276.116 79.3446 264.002 80.6746 263.452Z" fill="#F4F4E6"/>
<path d="M345.795 263.612L341.244 263.638L329.393 174.858C321.39 119.9 290.523 80.0012 243.736 63.8243C244.624 59.9963 245.135 56.0308 245.112 51.9366C244.971 28.5828 229.106 8.91051 207.357 2.3457C209.548 9.04802 221.199 15.9499 222.215 33.5951C224.064 65.7582 215.301 75.7873 216.144 79.7617C216.608 81.9662 282.625 92.6518 287.927 197.884C289.22 223.504 290.167 259.575 269.498 276.985C298.753 292.195 304.524 321.2 280.68 341.831L346.273 341.449C368.345 341.321 386.132 323.791 386 302.3C385.863 280.805 367.867 263.483 345.795 263.612Z" fill="#F2EAD1"/>
<path d="M345.783 263.61L341.232 263.637L341.683 254.411C336.395 255.799 147.423 272.579 48.2751 253.178L46.5078 265.141C79.6847 280.209 307.213 284.316 345.783 263.61Z" fill="#F2EAD1"/>
</svg>
